 <svg  style="position:absolute;width:0;height:0 " xmlns="http://www.w3.org/2000/svg">

        <symbol  id="smartphone" viewBox="0 0 10 16"  >
            <path d="M8.5 0h-7C.673 0 0 .673 0 1.5v13c0 .827.673 1.5 1.5 1.5h7c.827 0 1.5-.673 1.5-1.5v-13C10 .673 9.327 0 8.5 0Zm-7 1h7a.5.5 0 0 1 .5.5V12H1V1.5a.5.5 0 0 1 .5-.5Zm7 14h-7a.5.5 0 0 1-.5-.5V13h8v1.5a.5.5 0 0 1-.5.5Z"/>
            <path d="M2.354 13.739a.445.445 0 0 1 0 .66.525.525 0 0 1-.708 0 .445.445 0 0 1 0-.66.525.525 0 0 1 .708 0Z" />
        </symbol>
        <symbol id="envelope" viewBox="0 0 16 12"  >
            <path d="M14.5 0H1.50001C0.672854 0 0 0.672853 0 1.50001V10.5C0 11.3271 0.672854 12 1.50001 12H14.5C15.3271 12 16 11.3271 16 10.5V1.50001C16 0.672853 15.3271 0 14.5 0ZM14.5 0.999994C14.5679 0.999994 14.6325 1.01409 14.6916 1.0387L8 6.83838L1.30833 1.0387C1.36742 1.01412 1.43204 0.999994 1.49998 0.999994H14.5ZM14.5 11H1.50001C1.22414 11 0.999996 10.7759 0.999996 10.5V2.09521L7.67236 7.87792C7.76661 7.95944 7.8833 7.99999 8 7.99999C8.1167 7.99999 8.23339 7.95948 8.32764 7.87792L15 2.09521V10.5C15 10.7759 14.7759 11 14.5 11Z" />
        </symbol>
        <symbol id = "facebook"   viewBox="0 0 20 20">
            <g clip-path="url(#a)">
            <path d="M13.33 3.32h1.827V.14a23.578 23.578 0 0 0-2.66-.14C9.864 0 8.06 1.656 8.06 4.7v2.8H5.156v3.555H8.06V20h3.562v-8.944h2.787l.442-3.555h-3.23V5.05c0-1.027.277-1.73 1.709-1.73Z" />
            </g>
            <defs>
            <clipPath id="a">
            <path fill="#fff" d="M0 0h20v20H0z"/>
            </clipPath>
            </defs>
            </svg>
        </symbol>
        <symbol id="icon-instagram" viewBox="0 0 20 20">
            <path  style="fill: var(--color1, #afb1b8)" d="M31.969 9.408c-0.075-1.7-0.35-2.869-0.744-3.882-0.406-1.075-1.032-2.038-1.851-2.838-0.8-0.813-1.769-1.444-2.832-1.844-1.019-0.394-2.182-0.669-3.882-0.744-1.713-0.081-2.257-0.1-6.601-0.1s-4.888 0.019-6.595 0.094c-1.7 0.075-2.869 0.35-3.882 0.744-1.075 0.406-2.038 1.031-2.838 1.85-0.813 0.8-1.444 1.769-1.844 2.832-0.394 1.019-0.669 2.182-0.744 3.882-0.081 1.713-0.1 2.257-0.1 6.601s0.019 4.888 0.094 6.595c0.075 1.7 0.35 2.869 0.744 3.882 0.406 1.075 1.038 2.038 1.85 2.838 0.8 0.813 1.769 1.444 2.832 1.844 1.019 0.394 2.182 0.669 3.882 0.744 1.706 0.075 2.25 0.094 6.595 0.094s4.888-0.019 6.595-0.094c1.7-0.075 2.869-0.35 3.882-0.744 2.151-0.832 3.851-2.532 4.682-4.682 0.394-1.019 0.669-2.182 0.744-3.882 0.075-1.707 0.094-2.251 0.094-6.595s-0.006-4.888-0.081-6.595zM29.087 22.473c-0.069 1.563-0.331 2.407-0.55 2.969-0.538 1.394-1.644 2.5-3.038 3.038-0.563 0.219-1.413 0.481-2.969 0.55-1.688 0.075-2.194 0.094-6.464 0.094s-4.782-0.019-6.464-0.094c-1.563-0.069-2.407-0.331-2.969-0.55-0.694-0.256-1.325-0.663-1.838-1.194-0.531-0.519-0.938-1.144-1.194-1.838-0.219-0.563-0.481-1.413-0.55-2.969-0.075-1.688-0.094-2.194-0.094-6.464s0.019-4.782 0.094-6.464c0.069-1.563 0.331-2.407 0.55-2.969 0.256-0.694 0.663-1.325 1.2-1.838 0.519-0.531 1.144-0.938 1.838-1.194 0.563-0.219 1.413-0.481 2.969-0.55 1.688-0.075 2.194-0.094 6.464-0.094 4.276 0 4.782 0.019 6.464 0.094 1.563 0.069 2.407 0.331 2.969 0.55 0.694 0.256 1.325 0.662 1.838 1.194 0.531 0.519 0.938 1.144 1.194 1.838 0.219 0.563 0.481 1.413 0.55 2.969 0.075 1.688 0.094 2.194 0.094 6.464s-0.019 4.77-0.094 6.458z"></path>
            <path  style="fill: var(--color1, #afb1b8)" d="M16.059 7.783c-4.538 0-8.22 3.682-8.22 8.22s3.682 8.22 8.22 8.22c4.539 0 8.22-3.682 8.22-8.22s-3.682-8.22-8.22-8.22zM16.059 21.335c-2.944 0-5.332-2.388-5.332-5.332s2.388-5.332 5.332-5.332c2.944 0 5.332 2.388 5.332 5.332s-2.388 5.332-5.332 5.332z"></path>
            <path  style="fill: var(--color1, #afb1b8)" d="M26.524 7.458c0 1.060-0.859 1.919-1.919 1.919s-1.919-0.859-1.919-1.919c0-1.060 0.859-1.919 1.919-1.919s1.919 0.859 1.919 1.919z"></path>
        </symbol>
</svg>