 <svg  style="position:absolute;width:0;height:0 " xmlns="http://www.w3.org/2000/svg">
    <defs>
        <symbol  id="smartphone" viewBox="0 0 10 16"  >
            <path d="M8.5 0h-7C.673 0 0 .673 0 1.5v13c0 .827.673 1.5 1.5 1.5h7c.827 0 1.5-.673 1.5-1.5v-13C10 .673 9.327 0 8.5 0Zm-7 1h7a.5.5 0 0 1 .5.5V12H1V1.5a.5.5 0 0 1 .5-.5Zm7 14h-7a.5.5 0 0 1-.5-.5V13h8v1.5a.5.5 0 0 1-.5.5Z"/>
            <path d="M2.354 13.739a.445.445 0 0 1 0 .66.525.525 0 0 1-.708 0 .445.445 0 0 1 0-.66.525.525 0 0 1 .708 0Z" />
        </symbol>
        <symbol id="envelope" viewBox="0 0 16 12"  >
            <path d="M14.5 0H1.50001C0.672854 0 0 0.672853 0 1.50001V10.5C0 11.3271 0.672854 12 1.50001 12H14.5C15.3271 12 16 11.3271 16 10.5V1.50001C16 0.672853 15.3271 0 14.5 0ZM14.5 0.999994C14.5679 0.999994 14.6325 1.01409 14.6916 1.0387L8 6.83838L1.30833 1.0387C1.36742 1.01412 1.43204 0.999994 1.49998 0.999994H14.5ZM14.5 11H1.50001C1.22414 11 0.999996 10.7759 0.999996 10.5V2.09521L7.67236 7.87792C7.76661 7.95944 7.8833 7.99999 8 7.99999C8.1167 7.99999 8.23339 7.95948 8.32764 7.87792L15 2.09521V10.5C15 10.7759 14.7759 11 14.5 11Z" />
        </symbol>
        <symbol id = "facebook"   viewBox="0 0 20 20">
            <g clip-path="url(#a)">
            <path d="M13.33 3.32h1.827V.14a23.578 23.578 0 0 0-2.66-.14C9.864 0 8.06 1.656 8.06 4.7v2.8H5.156v3.555H8.06V20h3.562v-8.944h2.787l.442-3.555h-3.23V5.05c0-1.027.277-1.73 1.709-1.73Z" />
            </g>
            <defs>
            <clipPath id="a">
            <path fill="#fff" d="M0 0h20v20H0z"/>
            </clipPath>
            </defs>
        </symbol>
        <symbol id="icon-instagram" viewBox="0 0 20 20">
            <g clip-path="url(#clip0_1_492)">
            <path d="M19.9804 5.88005C19.9336 4.81738 19.7617 4.0868 19.5156 3.45374C19.2616 2.78176 18.8709 2.18014 18.359 1.68002C17.8589 1.1721 17.2533 0.777435 16.5891 0.527447C15.9524 0.281274 15.2256 0.109427 14.163 0.0625732C13.0924 0.0117516 12.7525 0 10.0371 0C7.32173 0 6.98185 0.0117516 5.91521 0.0586052C4.85253 0.105459 4.12195 0.277459 3.48904 0.523479C2.81692 0.777435 2.2153 1.16814 1.71517 1.68002C1.20726 2.18014 0.812743 2.78573 0.562603 3.44992C0.31643 4.0868 0.144583 4.81341 0.0977294 5.87609C0.0469078 6.9467 0.0351562 7.28658 0.0351562 10.002C0.0351562 12.7173 0.0469078 13.0572 0.0937614 14.1239C0.140615 15.1865 0.312615 15.9171 0.558787 16.5502C0.812743 17.2221 1.20726 17.8238 1.71517 18.3239C2.2153 18.8318 2.82088 19.2265 3.48508 19.4765C4.12195 19.7226 4.84856 19.8945 5.91139 19.9413C6.97788 19.9883 7.31791 19.9999 10.0333 19.9999C12.7487 19.9999 13.0885 19.9883 14.1552 19.9413C15.2179 19.8945 15.9484 19.7226 16.5813 19.4765C17.9254 18.9568 18.9881 17.8941 19.5078 16.5502C19.7538 15.9133 19.9258 15.1865 19.9727 14.1239C20.0195 13.0572 20.0313 12.7173 20.0313 10.002C20.0313 7.28658 20.0273 6.9467 19.9804 5.88005ZM18.1794 14.0457C18.1364 15.0225 17.9723 15.5499 17.8356 15.9015C17.4995 16.7728 16.808 17.4643 15.9367 17.8004C15.5851 17.9372 15.0538 18.1012 14.0809 18.1441C13.026 18.1911 12.7096 18.2027 10.0411 18.2027C7.37255 18.2027 7.05221 18.1911 6.00113 18.1441C5.02438 18.1012 4.49693 17.9372 4.1453 17.8004C3.71171 17.6402 3.31704 17.3862 2.9967 17.0541C2.6646 16.7298 2.41065 16.3391 2.2504 15.9055C2.11365 15.5539 1.94959 15.0225 1.90671 14.0497C1.8597 12.9948 1.8481 12.6783 1.8481 10.0097C1.8481 7.34122 1.8597 7.02087 1.90671 5.96995C1.94959 4.99319 2.11365 4.46575 2.2504 4.11412C2.41065 3.68038 2.6646 3.28586 3.00067 2.96536C3.32483 2.63327 3.71553 2.37931 4.14927 2.21921C4.5009 2.08247 5.03231 1.9184 6.0051 1.87537C7.05999 1.82851 7.37652 1.81676 10.0449 1.81676C12.7174 1.81676 13.0337 1.82851 14.0848 1.87537C15.0616 1.9184 15.589 2.08247 15.9407 2.21921C16.3742 2.37931 16.7689 2.63327 17.0893 2.96536C17.4213 3.28967 17.6753 3.68038 17.8356 4.11412C17.9723 4.46575 18.1364 4.99701 18.1794 5.96995C18.2263 7.02484 18.238 7.34122 18.238 10.0097C18.238 12.6783 18.2263 12.9908 18.1794 14.0457Z" />
            <path d="M10.0371 4.8642C7.20074 4.8642 4.89941 7.16537 4.89941 10.0019C4.89941 12.8385 7.20074 15.1396 10.0371 15.1396C12.8737 15.1396 15.1749 12.8385 15.1749 10.0019C15.1749 7.16537 12.8737 4.8642 10.0371 4.8642ZM10.0371 13.3346C8.19702 13.3346 6.70442 11.8422 6.70442 10.0019C6.70442 8.16165 8.19702 6.66921 10.0371 6.66921C11.8774 6.66921 13.3698 8.16165 13.3698 10.0019C13.3698 11.8422 11.8774 13.3346 10.0371 13.3346Z"/>
            <path d="M16.5775 4.6611C16.5775 5.32346 16.0404 5.86052 15.3779 5.86052C14.7155 5.86052 14.1785 5.32346 14.1785 4.6611C14.1785 3.99858 14.7155 3.46167 15.3779 3.46167C16.0404 3.46167 16.5775 3.99858 16.5775 4.6611Z" />
            </g>
            <defs>
            <clipPath id="clip0_1_492">
            <rect width="20" height="20" fill="white"/>
            </clipPath>
            </defs>
        </symbol>
        <symbol id="linkedin" viewBox="0 0 20 20">
        <g clip-path="url(#clip0_1_476)" >
        <path d="M19.995 20V19.9992H20V12.6642C20 9.07587 19.2275 6.31171 15.0325 6.31171C13.0158 6.31171 11.6625 7.41837 11.11 8.46754H11.0517V6.64671H7.07416V19.9992H11.2158V13.3875C11.2158 11.6467 11.5458 9.96337 13.7017 9.96337C15.8258 9.96337 15.8575 11.95 15.8575 13.4992V20H19.995Z" />
        <path d="M0.330017 6.64746H4.47668V20H0.330017V6.64746Z" />
        <path d="M2.40167 0C1.07583 0 0 1.07583 0 2.40167C0 3.7275 1.07583 4.82583 2.40167 4.82583C3.7275 4.82583 4.80333 3.7275 4.80333 2.40167C4.8025 1.07583 3.72667 0 2.40167 0V0Z" />
        </g>
        <defs>
        <clipPath id="clip0_1_476">
        <rect width="20" height="20" fill="white"/>
            </clipPath>
        </defs>
        </symbol>
        <symbol id="twitter"  viewBox="0 0 20 20">
            <g clip-path="url(#clip0_1_486)">
                <path d="M20 3.79875C19.2563 4.125 18.4637 4.34125 17.6375 4.44625C18.4875 3.93875 19.1363 3.14125 19.4412 2.18C18.6488 2.6525 17.7738 2.98625 16.8412 3.1725C16.0887 2.37125 15.0162 1.875 13.8462 1.875C11.5763 1.875 9.74875 3.7175 9.74875 5.97625C9.74875 6.30125 9.77625 6.61375 9.84375 6.91125C6.435 6.745 3.41875 5.11125 1.3925 2.6225C1.03875 3.23625 0.83125 3.93875 0.83125 4.695C0.83125 6.115 1.5625 7.37375 2.6525 8.1025C1.99375 8.09 1.3475 7.89875 0.8 7.5975C0.8 7.61 0.8 7.62625 0.8 7.6425C0.8 9.635 2.22125 11.29 4.085 11.6712C3.75125 11.7625 3.3875 11.8062 3.01 11.8062C2.7475 11.8062 2.4825 11.7913 2.23375 11.7362C2.765 13.36 4.2725 14.5538 6.065 14.5925C4.67 15.6838 2.89875 16.3412 0.98125 16.3412C0.645 16.3412 0.3225 16.3263 0 16.285C1.81625 17.4563 3.96875 18.125 6.29 18.125C13.835 18.125 17.96 11.875 17.96 6.4575C17.96 6.27625 17.9538 6.10125 17.945 5.9275C18.7588 5.35 19.4425 4.62875 20 3.79875Z" />
            </g>
            <defs>
                <clipPath id="clip0_1_486">
                    <rect width="20" height="20" fill="white"/>
                </clipPath>
            </defs>
        </symbol>
        <symbol id="logo1" viewBox="0 0 106 60">
            <path fill-rule="evenodd" clip-rule="evenodd" d="M50.1136 5.93452H49.977C49.7671 5.92181 49.5571 5.91672 49.3471 5.91163H49.3471H49.3269H48.8918C48.4946 5.91163 48.0898 5.92181 47.6876 5.94215C47.6573 5.93994 47.6269 5.93994 47.5966 5.94215C43.9522 6.14863 40.3817 7.05951 37.0805 8.62492L36.6479 8.83344V30.9746L37.6598 30.6313C38.5477 30.3261 39.4938 30.0515 40.4728 29.7972C43.1193 29.1178 45.8367 28.7567 48.568 28.7216V31.6306C48.2062 31.6332 47.8546 31.6434 47.503 31.6612H47.4195C45.3175 31.7765 43.2317 32.0967 41.1913 32.6173C38.6072 33.2643 36.1143 34.2357 33.7716 35.5086V7.11189C36.2047 5.69275 38.8253 4.62687 41.5556 3.94596C43.9527 3.32705 46.4169 3.00931 48.8918 3H49.3193C49.8303 3.01271 50.3287 3.0356 50.7967 3.0712C52.0297 3.15778 53.2528 3.35263 54.4521 3.65353V6.51685C53.2874 6.24551 52.1032 6.06695 50.9105 5.98284C50.8863 5.98079 50.8621 5.97872 50.8379 5.97666C50.5911 5.95561 50.344 5.93452 50.1136 5.93452ZM55.1528 8.86138C55.7877 8.9097 56.4455 8.93259 57.1108 8.93259C59.7125 8.92307 62.3031 8.59083 64.8239 7.94339C67.4068 7.29396 69.8986 6.32178 72.2411 5.04956V32.9402C69.8067 34.3585 67.1853 35.4243 64.4546 36.1061C62.0571 36.7227 59.5931 37.0395 57.1184 37.0496C55.2433 37.0647 53.3737 36.8443 51.553 36.3935V8.32229C51.983 8.42146 52.4257 8.51301 52.876 8.58929C53.6147 8.7139 54.3939 8.80544 55.1528 8.86138ZM69.3471 9.07753L68.3352 9.41828C67.4042 9.73106 66.4657 10.0108 65.5221 10.26C62.7749 10.966 59.9514 11.3281 57.1158 11.3382C56.4556 11.3382 55.8485 11.3204 55.2616 11.2822L54.4546 11.2288V31.3178V34.0057L55.1477 34.0667C55.7903 34.1227 56.4531 34.1506 57.1209 34.1506C59.3544 34.1412 61.5781 33.8533 63.7412 33.2937C65.5223 32.8469 67.2552 32.2243 68.9145 31.4348L69.3471 31.2263V9.07753Z" fill="#AFB1B8"/>
            <path d="M35.7371 45.2124C35.5917 45.0615 35.4163 44.943 35.2224 44.8646C35.0284 44.7862 34.8203 44.7496 34.6114 44.7572C34.3888 44.7542 34.1678 44.7957 33.9613 44.8793C33.7719 44.9547 33.5998 45.068 33.4553 45.2124C33.3125 45.3572 33.2013 45.5304 33.129 45.721C33.0497 45.9207 33.0101 46.1341 33.0126 46.3491V50.1431C33.0036 50.4104 33.0546 50.6764 33.1619 50.9212C33.2514 51.1156 33.3807 51.2889 33.5413 51.4298C33.693 51.5575 33.871 51.6495 34.0625 51.6994C34.2469 51.7512 34.4376 51.7777 34.6291 51.7782C34.8404 51.7803 35.0495 51.7351 35.2413 51.646C35.4309 51.563 35.6028 51.4438 35.7473 51.295C35.8881 51.1476 36.0005 50.9752 36.0786 50.7864C36.1597 50.5951 36.201 50.3892 36.2001 50.1812V49.7566H35.2084V50.0948C35.2114 50.2103 35.1916 50.3252 35.1502 50.433C35.1179 50.5137 35.0688 50.5866 35.006 50.6466C34.9446 50.6962 34.8742 50.7334 34.7986 50.7559C34.7316 50.7782 34.6617 50.7902 34.5912 50.7915C34.5026 50.8018 34.413 50.7885 34.3312 50.7527C34.2495 50.717 34.1786 50.6602 34.1257 50.5881C34.0322 50.4356 33.9864 50.2585 33.9942 50.0795V46.5423C33.988 46.3462 34.0297 46.1515 34.1156 45.9753C34.1671 45.8952 34.2399 45.8313 34.3258 45.7908C34.4117 45.7503 34.5071 45.7349 34.6013 45.7464C34.6868 45.7434 34.7717 45.7612 34.8488 45.7984C34.9259 45.8356 34.9929 45.8911 35.044 45.96C35.155 46.1057 35.213 46.2852 35.2084 46.4686V46.7966H36.19V46.4101C36.1919 46.1831 36.1507 45.9578 36.0685 45.7464C35.9953 45.5476 35.8825 45.3659 35.7371 45.2124Z" fill="#AFB1B8"/>
            <path d="M41.6289 45.1691C41.3127 44.9021 40.9136 44.7546 40.5007 44.7521C40.2987 44.7529 40.0984 44.7891 39.9087 44.8589C39.7161 44.9279 39.5384 45.0332 39.3851 45.1691C39.2208 45.3168 39.0897 45.498 39.0005 45.7006C38.9006 45.9323 38.8515 46.183 38.8563 46.4355V50.0744C38.8495 50.3304 38.8987 50.5847 39.0005 50.8195C39.0903 51.0151 39.2215 51.1887 39.3851 51.328C39.5367 51.4688 39.7147 51.5777 39.9087 51.6485C40.0984 51.7183 40.2987 51.7544 40.5007 51.7553C40.7027 51.7549 40.9031 51.7187 41.0926 51.6485C41.29 51.5767 41.4719 51.468 41.6289 51.328C41.7871 51.1861 41.9145 51.013 42.0033 50.8195C42.1051 50.5847 42.1544 50.3304 42.1475 50.0744V46.4355C42.1524 46.183 42.1032 45.9323 42.0033 45.7006C41.9151 45.5001 41.7878 45.3194 41.6289 45.1691ZM41.166 50.0744C41.1743 50.1714 41.1609 50.269 41.1268 50.3601C41.0926 50.4512 41.0386 50.5334 40.9687 50.6008C40.8377 50.7106 40.6725 50.7708 40.5019 50.7708C40.3313 50.7708 40.1662 50.7106 40.0352 50.6008C39.9652 50.5334 39.9112 50.4512 39.8771 50.3601C39.8429 50.269 39.8295 50.1714 39.8379 50.0744V46.4355C39.8295 46.3385 39.8429 46.2409 39.8771 46.1498C39.9112 46.0587 39.9652 45.9764 40.0352 45.9091C40.1662 45.7993 40.3313 45.7391 40.5019 45.7391C40.6725 45.7391 40.8377 45.7993 40.9687 45.9091C41.0386 45.9764 41.0926 46.0587 41.1268 46.1498C41.1609 46.2409 41.1743 46.3385 41.166 46.4355V50.0744Z" fill="#AFB1B8"/>
            <path d="M49.3673 51.6994V44.8107H48.4136L47.1614 48.4572H47.1437L45.8813 44.8107H44.9377V51.6994H45.9218V47.5087H45.9395L46.9033 50.4712H47.3941L48.3655 47.5087H48.3832V51.6994H49.3673Z" fill="#AFB1B8"/>
            <path d="M54.9581 45.2937C54.8065 45.1237 54.6153 44.9943 54.4015 44.9173C54.1712 44.8424 53.9302 44.8063 53.6881 44.8105H52.226V51.6993H53.2075V49.0089H53.7134C54.0197 49.0228 54.3244 48.958 54.5988 48.8207C54.822 48.6968 55.0081 48.515 55.1377 48.2943C55.2512 48.1111 55.3277 47.9071 55.3628 47.6942C55.4014 47.435 55.4192 47.173 55.4159 46.911C55.4255 46.5802 55.3932 46.2495 55.3198 45.9269C55.2543 45.6885 55.1299 45.4706 54.9581 45.2937ZM54.4521 47.3941C54.4479 47.5188 54.4168 47.6412 54.361 47.7527C54.3049 47.8586 54.2162 47.9434 54.1081 47.9942C53.9627 48.0593 53.8041 48.0889 53.6451 48.0807H53.1974V45.7387H53.7033C53.8557 45.7312 54.0075 45.7609 54.146 45.8251C54.2475 45.8834 54.3281 45.9724 54.3762 46.0794C54.4299 46.2004 54.4591 46.331 54.4622 46.4634C54.4622 46.6084 54.4622 46.7609 54.4622 46.9211C54.4622 47.0813 54.4723 47.2466 54.4622 47.3941H54.4521Z" fill="#AFB1B8"/>
            <path d="M59.6077 44.8107H58.8032L57.2854 51.6994H58.2669L58.5553 50.2194H59.8935L60.1819 51.6994H61.1635L59.6077 44.8107ZM58.702 49.2811L59.1852 46.784H59.2029L59.6836 49.2811H58.702Z" fill="#AFB1B8"/>
            <path d="M65.9497 48.9607H65.932L64.4496 44.8107H63.506V51.6994H64.4875V47.557H64.5078L66.0079 51.6994H66.9312V44.8107H65.9497V48.9607Z" fill="#AFB1B8"/>
            <path d="M71.9476 44.8107L71.1583 47.5494H71.1381L70.3488 44.8107H69.3091L70.6574 48.7878V51.6994H71.639V48.7878L72.9873 44.8107H71.9476Z" fill="#AFB1B8"/>
            <path d="M33 53.6445H33.4731V54.9719H33.7943V53.6445H34.2649V53.3724H33V53.6445Z" fill="#AFB1B8"/>
            <path d="M36.9767 53.3724L36.3569 54.9719H36.6984L36.83 54.6083H37.4675L37.6041 54.9719H37.9532L37.3182 53.3724H36.9767ZM36.9261 54.3387L37.1437 53.7462L37.3612 54.3387H36.9261Z" fill="#AFB1B8"/>
            <path d="M40.9079 54.3821H41.2773V54.5881C41.1694 54.6746 41.0358 54.722 40.8978 54.7229C40.8333 54.7265 40.7689 54.7145 40.7099 54.688C40.6509 54.6614 40.5991 54.6211 40.5588 54.5703C40.474 54.4485 40.4322 54.3017 40.4399 54.1533C40.4399 53.7973 40.5942 53.6193 40.9003 53.6193C40.9809 53.6112 41.0617 53.6325 41.128 53.6791C41.1944 53.7257 41.2419 53.7947 41.2621 53.8735L41.5783 53.8125C41.51 53.4997 41.2849 53.3421 40.9003 53.3421C40.6947 53.3366 40.4947 53.4103 40.3413 53.5481C40.2607 53.6276 40.1983 53.7239 40.1586 53.8302C40.1188 53.9365 40.1026 54.0502 40.1111 54.1634C40.1017 54.3823 40.1749 54.5966 40.316 54.7636C40.3943 54.8444 40.4892 54.9071 40.594 54.9475C40.6988 54.9879 40.8111 55.0049 40.9231 54.9975C41.1734 55.0045 41.4165 54.9133 41.6011 54.7432V54.1126H40.9079V54.3821Z" fill="#AFB1B8"/>
            <path d="M44.9226 53.3724H44.5988V54.9719H45.7194V54.6998H44.9226V53.3724Z" fill="#AFB1B8"/>
            <path d="M48.3175 53.3724H47.9937V54.9719H48.3175V53.3724Z" fill="#AFB1B8"/>
            <path d="M51.6365 54.4405L50.9813 53.3724H50.6676V54.9719H50.9686V53.9268L51.6112 54.9719H51.9325V53.3724H51.6365V54.4405Z" fill="#AFB1B8"/>
            <path d="M54.6368 54.2675H55.4337V53.9954H54.6368V53.6445H55.4944V53.3724H54.313V54.9719H55.5273V54.6998H54.6368V54.2675Z" fill="#AFB1B8"/>
            <path d="M61.9122 54.0031H61.2823V53.3724H60.9611V54.9719H61.2823V54.2726H61.9122V54.9719H62.2335V53.3724H61.9122V54.0031Z" fill="#AFB1B8"/>
            <path d="M64.9302 54.2675H65.7296V53.9954H64.9302V53.6445H65.7903V53.3724H64.6089V54.9719H65.8206V54.6998H64.9302V54.2675Z" fill="#AFB1B8"/>
            <path d="M69.0233 54.2676C69.3015 54.2244 69.4432 54.0769 69.4432 53.8226C69.4513 53.7546 69.441 53.6856 69.4134 53.623C69.3858 53.5603 69.3419 53.5063 69.2863 53.4666C69.1415 53.3938 68.9799 53.3614 68.8183 53.3725H68.1404V54.972H68.4617V54.3032H68.5249C68.5934 54.299 68.6619 54.3112 68.7247 54.3388C68.7717 54.3678 68.8108 54.4079 68.8386 54.4558L69.1877 54.9644H69.5722L69.3774 54.6516C69.2913 54.4972 69.1699 54.3656 69.0233 54.2676ZM68.6994 54.0464H68.4617V53.6446H68.7146C68.8248 53.6357 68.9357 53.6486 69.041 53.6827C69.0644 53.7034 69.0828 53.7291 69.095 53.7579C69.1072 53.7867 69.1127 53.8179 69.1113 53.8492C69.1098 53.8804 69.1014 53.911 69.0866 53.9385C69.0718 53.966 69.051 53.9899 69.0258 54.0082C68.9202 54.0406 68.8096 54.0535 68.6994 54.0464Z" fill="#AFB1B8"/>
            <path d="M72.1096 54.2675H72.9064V53.9954H72.1096V53.6445H72.9697V53.3724H71.7858V54.9719H73V54.6998H72.1096V54.2675Z" fill="#AFB1B8"/>
        </symbol>
    </dfs>
</svg>