 <svg  style="position:absolute;width:0;height:0 " xmlns="http://www.w3.org/2000/svg">

        <symbol  id="smartphone" viewBox="0 0 10 16"  >
            <path d="M8.5 0h-7C.673 0 0 .673 0 1.5v13c0 .827.673 1.5 1.5 1.5h7c.827 0 1.5-.673 1.5-1.5v-13C10 .673 9.327 0 8.5 0Zm-7 1h7a.5.5 0 0 1 .5.5V12H1V1.5a.5.5 0 0 1 .5-.5Zm7 14h-7a.5.5 0 0 1-.5-.5V13h8v1.5a.5.5 0 0 1-.5.5Z"/>
            <path d="M2.354 13.739a.445.445 0 0 1 0 .66.525.525 0 0 1-.708 0 .445.445 0 0 1 0-.66.525.525 0 0 1 .708 0Z" />
        </symbol>
        <symbol id="envelope" viewBox="0 0 16 12"  >
            <path d="M14.5 0H1.50001C0.672854 0 0 0.672853 0 1.50001V10.5C0 11.3271 0.672854 12 1.50001 12H14.5C15.3271 12 16 11.3271 16 10.5V1.50001C16 0.672853 15.3271 0 14.5 0ZM14.5 0.999994C14.5679 0.999994 14.6325 1.01409 14.6916 1.0387L8 6.83838L1.30833 1.0387C1.36742 1.01412 1.43204 0.999994 1.49998 0.999994H14.5ZM14.5 11H1.50001C1.22414 11 0.999996 10.7759 0.999996 10.5V2.09521L7.67236 7.87792C7.76661 7.95944 7.8833 7.99999 8 7.99999C8.1167 7.99999 8.23339 7.95948 8.32764 7.87792L15 2.09521V10.5C15 10.7759 14.7759 11 14.5 11Z" />
        </symbol>
        <symbol id = "facebook"   viewBox="0 0 44 44">
            <path d="M44 22a21.931 21.931 0 0 1-6.444 15.556A21.932 21.932 0 0 1 22 44a21.931 21.931 0 0 1-15.556-6.444A21.931 21.931 0 0 1 0 22 21.931 21.931 0 0 1 6.444 6.444 21.931 21.931 0 0 1 22 0a21.931 21.931 0 0 1 15.556 6.444A21.931 21.931 0 0 1 44 22Z" fill="#fff"/><g clip-path="url(#a)"><path d="M25.33 15.32h1.827v-3.18a23.588 23.588 0 0 0-2.66-.14c-2.633 0-4.436 1.656-4.436 4.7v2.8h-2.905v3.555h2.905V32h3.562v-8.944h2.787l.443-3.555h-3.231v-2.45c0-1.027.277-1.73 1.709-1.73Z" fill="#AFB1B8"/></g><defs><clipPath id="a"><path fill="#fff" transform="translate(12 12)" d="M0 0h20v20H0z"/></clipPath></defs></svg><g clip-path="url(#a)">
                <path d="M13.33 3.32h1.827V.14a23.578 23.578 0 0 0-2.66-.14C9.864 0 8.06 1.656 8.06 4.7v2.8H5.156v3.555H8.06V20h3.562v-8.944h2.787l.442-3.555h-3.23V5.05c0-1.027.277-1.73 1.709-1.73Z" fill="#AFB1B8"/>
            </g>
            <defs>
                <clipPath id="a">
                <path fill="#fff" d="M0 0h20v20H0z"/>
                </clipPath>
            </defs>
        </symbol>
</svg>